# xmcd
#
# Track frame offsets:
#  150
#  12877
#  22457
#  32995
#  45545
#  56610
#  66697
#  77752
#  88817
#  99040
#  110817
#  122305
#  132437
#  146182
#
# Disc length: 2082 seconds
#
# Revision: 0
# Processed by: cddbd v1.5.1PL2 Copyright (c) Steve Scherf et al.
# Submitted via: Collectorz.com_Music_Collector 6.9
#
DISCID=ca08200e
DTITLE=Sand Mountain - Molly Rose
DYEAR=1998
DGENRE=Bluegrass
TTITLE0=Molly Rose
TTITLE1=Fastest Rabbit Dog in Clark (Carter) County Today
TTITLE2=You Don't Have Far To Go
TTITLE3=Silver Wings
TTITLE4=Send Me the Pillow That You Dream On
TTITLE5=One Step Ahead of the Blues
TTITLE6=Is Anybody Going To San Antone
TTITLE7=I'll Still Write Your Name in the Sand
TTITLE8=Once A Day
TTITLE9=I've Cried My Last Tear Over You
TTITLE10=I'm Gonna Love You Back to Loving Me Again
TTITLE11=No Doubt About It
TTITLE12=I'm Using My Bible For a Roadmap
TTITLE13=Mama's Got the Catfish Blues
EXTD=
EXTT0=
EXTT1=
EXTT2=
EXTT3=
EXTT4=
EXTT5=
EXTT6=
EXTT7=
EXTT8=
EXTT9=
EXTT10=
EXTT11=
EXTT12=
EXTT13=
PLAYORDER=
